<svg width="32" height="32" fill="none" xmlns="http://www.w3.org/2000/svg"><rect opacity=".5" width="32" height="32" rx="8" fill="#fff" fill-opacity=".3"/><path fill-rule="evenodd" clip-rule="evenodd" d="M22.955 10.844c.471.488.625 1.596.625 1.596s.158 1.302.158 2.603v1.22c0 1.302-.158 2.603-.158 2.603s-.154 1.108-.625 1.596c-.54.577-1.137.637-1.475.67a4.916 4.916 0 00-.102.012c-2.202.162-5.51.168-5.51.168s-4.091-.039-5.35-.162a3.507 3.507 0 00-.214-.03c-.399-.05-1.025-.126-1.522-.658-.471-.488-.625-1.596-.625-1.596S8 17.565 8 16.263v-1.22c0-1.301.157-2.603.157-2.603s.154-1.108.625-1.596c.54-.578 1.14-.637 1.477-.67l.1-.011C12.563 10 15.866 10 15.866 10h.007s3.304 0 5.506.163l.1.01c.338.034.937.093 1.477.67zm-8.712 2.38v4.518l4.252-2.252-4.252-2.267z" fill="#fff"/></svg>