<?xml version="1.0" encoding="utf-8"?><svg xmlns="http://www.w3.org/2000/svg" xmlns:xlink="http://www.w3.org/1999/xlink"><symbol viewBox="0 0 16 17" id="close" xmlns="http://www.w3.org/2000/svg"><path d="M2.02 13.752L12.605 3.167m-9.857 0l10.585 10.586"/></symbol><symbol viewBox="0 0 16 17" id="done" xmlns="http://www.w3.org/2000/svg"><path d="M5.127 13.373a.718.718 0 00.51.218.718.718 0 00.508-.218l9.637-9.637a.703.703 0 000-1.018.703.703 0 00-1.018 0l-9.128 9.127-4.4-4.4a.703.703 0 00-1.018 0 .703.703 0 000 1.019l4.91 4.909z"/></symbol><symbol viewBox="0 0 32 32" id="facebook" xmlns="http://www.w3.org/2000/svg"><rect opacity=".5" width="32" height="32" rx="8" fill-opacity=".3"/><path fill-rule="evenodd" clip-rule="evenodd" d="M17.064 24.32v-8.161h2.252l.299-2.812h-2.551l.003-1.408c0-.733.07-1.126 1.123-1.126h1.41V8h-2.253c-2.707 0-3.66 1.364-3.66 3.659v1.688H12v2.812h1.687v8.16h3.377z"/></symbol><symbol viewBox="0 0 32 32" id="instagram" xmlns="http://www.w3.org/2000/svg"><rect opacity=".5" width="32" height="32" rx="8" fill-opacity=".3"/><path fill-rule="evenodd" clip-rule="evenodd" d="M16 8c-2.172 0-2.445.01-3.298.048-.852.04-1.433.174-1.942.372a3.917 3.917 0 00-1.417.923 3.927 3.927 0 00-.923 1.416c-.198.51-.334 1.09-.372 1.942-.038.854-.048 1.126-.048 3.3 0 2.172.01 2.444.048 3.297.04.852.174 1.433.372 1.942.205.526.478.972.923 1.417.444.445.89.719 1.416.923.51.198 1.09.333 1.942.372.854.039 1.126.048 3.299.048s2.444-.01 3.298-.048c.852-.04 1.434-.174 1.943-.372a3.916 3.916 0 001.416-.923c.445-.445.718-.891.923-1.417.197-.509.332-1.09.372-1.942.038-.853.048-1.125.048-3.298s-.01-2.445-.048-3.299c-.04-.851-.175-1.433-.372-1.941a3.926 3.926 0 00-.923-1.417 3.911 3.911 0 00-1.417-.923c-.51-.198-1.092-.333-1.943-.372C18.443 8.01 18.172 8 15.998 8h.003zm-.717 1.442h.718c2.136 0 2.389.007 3.232.046.78.035 1.204.166 1.486.275.373.145.64.319.92.598.28.28.453.547.598.92.11.282.24.705.275 1.486.039.843.047 1.096.047 3.231s-.008 2.389-.047 3.232c-.035.78-.166 1.203-.275 1.485a2.47 2.47 0 01-.599.919c-.28.28-.546.453-.92.598-.28.11-.704.24-1.485.276-.843.038-1.096.047-3.232.047s-2.39-.009-3.233-.047c-.78-.036-1.203-.166-1.486-.276a2.478 2.478 0 01-.92-.598 2.48 2.48 0 01-.598-.92c-.11-.281-.24-.705-.276-1.485-.038-.843-.046-1.096-.046-3.233 0-2.136.008-2.388.046-3.232.036-.78.166-1.203.276-1.485.145-.373.319-.64.599-.92.28-.28.546-.453.92-.598.282-.11.705-.24 1.485-.276.738-.034 1.024-.044 2.515-.045v.002z"/><path d="M19.311 11.73a.96.96 0 111.92 0 .96.96 0 01-1.92 0zM18.667 16a2.667 2.667 0 10-5.333 0 2.667 2.667 0 005.333 0z"/></symbol><symbol viewBox="0 0 16 16" id="mail" xmlns="http://www.w3.org/2000/svg"><path fill-rule="evenodd" clip-rule="evenodd" d="M1.6 1h12.8c.88 0 1.6.788 1.6 1.75v10.5c0 .963-.72 1.75-1.6 1.75H1.6C.72 15 0 14.213 0 13.25l.008-10.5C.008 1.788.72 1 1.6 1zM8 9l6.4-4.286V3L8 7.286 1.6 3v1.714L8 9z"/></symbol><symbol viewBox="0 0 16 16" id="phone" xmlns="http://www.w3.org/2000/svg"><path d="M15.12 11.004c-1.093 0-2.151-.177-3.138-.497a.869.869 0 00-.898.213L9.69 12.471c-2.516-1.2-4.871-3.467-6.125-6.071l1.734-1.476a.907.907 0 00.213-.906A9.913 9.913 0 015.013.88c0-.48-.4-.88-.88-.88H1.058C.578 0 0 .213 0 .88 0 9.138 6.871 16 15.12 16c.631 0 .88-.56.88-1.049v-3.067c0-.48-.4-.88-.88-.88z"/></symbol><symbol viewBox="0 0 16 16" id="pointer" xmlns="http://www.w3.org/2000/svg"><path fill-rule="evenodd" clip-rule="evenodd" d="M8 0c1.603 0 3.11.583 4.243 1.641 2.098 1.959 2.358 5.643.558 7.885L8 16 3.193 9.517C1.4 7.284 1.66 3.6 3.758 1.64 4.89.583 6.398 0 8 0zM5 6c0 1.654 1.346 3 3 3s3-1.346 3-3-1.346-3-3-3-3 1.346-3 3z"/></symbol><symbol viewBox="0 0 16 16" id="telegram" xmlns="http://www.w3.org/2000/svg"><path fill-rule="evenodd" clip-rule="evenodd" d="M14.23.284C13.602.57 6.515 3.884.743 6.57.286 6.8 0 7.256 0 7.713c0 .457.343.8.743.858.343.057 3.772.571 3.772.571l.971 5.715.515-2.515-.743-3.771 6.972-5.144-5.715 6.287 2 2.285c.115.115 2.572 2.972 2.743 3.144.286.285.744.857.972.857.4 0 .8-.572.972-1.429.171-.8 1.314-6.343 2.743-13.716.171-.8-.572-1.143-1.715-.571z"/></symbol><symbol viewBox="0 0 32 32" id="youtube" xmlns="http://www.w3.org/2000/svg"><rect opacity=".5" width="32" height="32" rx="8" fill-opacity=".3"/><path fill-rule="evenodd" clip-rule="evenodd" d="M22.955 10.844c.471.488.625 1.596.625 1.596s.158 1.302.158 2.603v1.22c0 1.302-.158 2.603-.158 2.603s-.154 1.108-.625 1.596c-.54.577-1.137.637-1.475.67a4.916 4.916 0 00-.102.012c-2.202.162-5.51.168-5.51.168s-4.091-.039-5.35-.162a3.507 3.507 0 00-.214-.03c-.399-.05-1.025-.126-1.522-.658-.471-.488-.625-1.596-.625-1.596S8 17.565 8 16.263v-1.22c0-1.301.157-2.603.157-2.603s.154-1.108.625-1.596c.54-.578 1.14-.637 1.477-.67l.1-.011C12.563 10 15.866 10 15.866 10h.007s3.304 0 5.506.163l.1.01c.338.034.937.093 1.477.67zm-8.712 2.38v4.518l4.252-2.252-4.252-2.267z"/></symbol></svg>