<svg width="32" height="32" viewBox="0 0 32 32" fill="none" xmlns="http://www.w3.org/2000/svg">
<rect opacity="0.5" width="32" height="32" rx="8" fill="white" fill-opacity="0.3"/>
<path fill-rule="evenodd" clip-rule="evenodd" d="M16.0007 8C13.8281 8 13.5554 8.0095 12.702 8.04833C11.8504 8.08733 11.269 8.22217 10.7604 8.42C10.2342 8.62434 9.78785 8.89768 9.34318 9.34251C8.89818 9.78719 8.62484 10.2335 8.41984 10.7595C8.2215 11.2684 8.0865 11.8499 8.04817 12.7012C8.01 13.5546 8 13.8274 8 16.0001C8 18.1728 8.00967 18.4446 8.04833 19.298C8.0875 20.1496 8.22234 20.731 8.42 21.2396C8.62451 21.7658 8.89784 22.2121 9.34268 22.6568C9.78719 23.1018 10.2335 23.3758 10.7594 23.5802C11.2684 23.778 11.8499 23.9128 12.7014 23.9518C13.5547 23.9907 13.8272 24.0002 15.9998 24.0002C18.1726 24.0002 18.4444 23.9907 19.2978 23.9518C20.1495 23.9128 20.7315 23.778 21.2405 23.5802C21.7665 23.3758 22.2121 23.1018 22.6567 22.6568C23.1017 22.2121 23.375 21.7658 23.58 21.2398C23.7767 20.731 23.9117 20.1495 23.9517 19.2981C23.99 18.4448 24 18.1728 24 16.0001C24 13.8274 23.99 13.5547 23.9517 12.7014C23.9117 11.8497 23.7767 11.2684 23.58 10.7597C23.375 10.2335 23.1017 9.78719 22.6567 9.34251C22.2116 8.89751 21.7666 8.62417 21.24 8.42C20.73 8.22217 20.1483 8.08733 19.2966 8.04833C18.4433 8.0095 18.1716 8 15.9983 8H16.0007ZM15.2831 9.44168C15.4224 9.44146 15.5723 9.44153 15.7341 9.4416L16.0007 9.44168C18.1368 9.44168 18.3899 9.44935 19.2335 9.48768C20.0135 9.52335 20.4368 9.65368 20.7188 9.76319C21.0921 9.90819 21.3583 10.0815 21.6381 10.3615C21.9181 10.6415 22.0915 10.9082 22.2368 11.2815C22.3463 11.5632 22.4768 11.9865 22.5123 12.7665C22.5507 13.6099 22.559 13.8632 22.559 15.9983C22.559 18.1333 22.5507 18.3866 22.5123 19.23C22.4767 20.01 22.3463 20.4333 22.2368 20.715C22.0918 21.0883 21.9181 21.3541 21.6381 21.634C21.3581 21.914 21.0923 22.0873 20.7188 22.2323C20.4371 22.3423 20.0135 22.4723 19.2335 22.508C18.3901 22.5463 18.1368 22.5547 16.0007 22.5547C13.8646 22.5547 13.6114 22.5463 12.768 22.508C11.988 22.472 11.5647 22.3416 11.2825 22.2321C10.9092 22.0871 10.6425 21.9138 10.3625 21.6338C10.0825 21.3538 9.90919 21.0878 9.76385 20.7143C9.65435 20.4326 9.52385 20.0093 9.48835 19.2293C9.45002 18.3859 9.44235 18.1326 9.44235 15.9962C9.44235 13.8599 9.45002 13.6079 9.48835 12.7645C9.52402 11.9845 9.65435 11.5612 9.76385 11.2792C9.90885 10.9059 10.0825 10.6392 10.3625 10.3592C10.6425 10.0792 10.9092 9.90585 11.2825 9.76052C11.5645 9.65052 11.988 9.52052 12.768 9.48468C13.5061 9.45135 13.7921 9.44135 15.2831 9.43968V9.44168Z" fill="white"/>
<path d="M19.311 11.7297C19.311 11.1996 19.741 10.77 20.271 10.77C20.8011 10.77 21.2311 11.1997 21.2311 11.7297C21.2311 12.2597 20.8011 12.6897 20.271 12.6897C19.741 12.6897 19.311 12.2597 19.311 11.7297Z" fill="white"/>
<path d="M18.6674 16.0001C18.6674 14.5272 17.4734 13.3334 16.0007 13.3334C14.5278 13.3334 13.334 14.5272 13.334 16.0001C13.334 17.4728 14.5278 18.6668 16.0007 18.6668C17.4734 18.6668 18.6674 17.4728 18.6674 16.0001Z" fill="white"/>
</svg>
