<svg width="32" height="32" viewBox="0 0 32 32" fill="none" xmlns="http://www.w3.org/2000/svg">
<rect opacity="0.5" width="32" height="32" rx="8" fill="white" fill-opacity="0.3"/>
<path fill-rule="evenodd" clip-rule="evenodd" d="M22.9548 10.8438C23.4264 11.3318 23.5803 12.44 23.5803 12.44C23.5803 12.44 23.7377 13.7417 23.7377 15.0428V16.2631C23.7377 17.5648 23.5803 18.8659 23.5803 18.8659C23.5803 18.8659 23.4264 19.9741 22.9548 20.4621C22.4155 21.0394 21.8176 21.0991 21.4797 21.1328C21.4425 21.1365 21.4085 21.1399 21.378 21.1436C19.1757 21.3064 15.8689 21.3115 15.8689 21.3115C15.8689 21.3115 11.777 21.2733 10.518 21.1496C10.4584 21.1383 10.3861 21.1294 10.3042 21.1194C9.90538 21.0705 9.27943 20.9937 8.78246 20.4621C8.31082 19.9741 8.15738 18.8659 8.15738 18.8659C8.15738 18.8659 8 17.5648 8 16.2631V15.0428C8 13.7417 8.15738 12.44 8.15738 12.44C8.15738 12.44 8.31082 11.3318 8.78246 10.8438C9.32288 10.2657 9.92135 10.2067 10.2593 10.1734C10.296 10.1698 10.3296 10.1665 10.3597 10.1628C12.562 10 15.8654 10 15.8654 10H15.8723C15.8723 10 19.1757 10 21.378 10.1628C21.4081 10.1665 21.4417 10.1698 21.4784 10.1734C21.8161 10.2067 22.4149 10.2658 22.9548 10.8438ZM14.2434 13.2231L14.2439 17.7418L18.4955 15.4903L14.2434 13.2231Z" fill="white"/>
</svg>
